<?xml version="1.0" encoding="UTF-8" standalone="no"?>
<!DOCTYPE svg PUBLIC "-//W3C//DTD SVG 20010904//EN"
              "http://www.w3.org/TR/2001/REC-SVG-20010904/DTD/svg10.dtd">

<svg xmlns="http://www.w3.org/2000/svg"
     width="4.16667in" height="1.58333in"
     viewBox="0 0 300 114">
  <path id="Selection"
        fill="orange" stroke="none" stroke-width="1"
        d="M 45.04,1.65
           C 51.86,0.22 58.58,0.95 63.67,6.21
             73.16,16.00 70.71,38.04 56.00,42.78
             45.52,46.15 34.89,38.24 32.53,28.00
             29.99,16.99 34.45,6.18 45.04,1.65 Z
           M 49.00,8.43
           C 41.96,10.61 38.36,16.69 39.19,24.00
             39.96,30.83 45.52,37.45 53.00,35.68
             65.72,32.67 65.62,7.56 49.00,8.43 Z
           M 87.00,11.31
           C 89.19,11.17 90.75,10.93 93.00,11.31
             112.58,12.53 111.90,44.95 92.00,49.32
             81.46,51.63 72.18,42.30 72.18,32.00
             72.17,22.73 78.23,14.34 87.00,11.31 Z
           M 90.00,18.43
           C 83.71,20.35 80.27,24.27 80.06,31.00
             79.88,36.81 83.02,43.63 90.00,42.33
             102.11,40.06 104.32,17.99 90.00,18.43 Z
           M 11.00,26.57
           C 19.44,25.06 26.02,27.25 30.47,35.00
             35.29,43.42 33.51,57.73 23.00,60.81
             1.95,66.98 -10.08,34.44 11.00,26.57 Z
           M 14.02,33.47
           C 0.56,38.80 10.53,55.54 18.98,54.24
             29.44,52.64 27.31,32.85 14.02,33.47 Z
           M 111.00,44.52
           C 113.96,44.06 116.00,43.81 119.00,44.52
             129.08,46.97 131.34,59.46 127.64,68.00
             124.64,74.90 116.52,79.56 109.00,78.80
             98.03,77.70 93.79,66.53 97.11,57.00
             99.56,49.95 104.03,46.46 111.00,44.52 Z
           M 54.00,47.44
           C 64.32,46.11 74.95,47.78 82.70,55.32
             86.78,59.30 92.28,68.76 95.43,73.91
             99.72,80.92 104.52,86.18 103.90,95.00
             103.33,103.31 97.25,110.82 89.00,112.61
             77.72,115.07 70.90,107.70 59.00,108.51
             48.04,109.26 45.03,112.65 38.00,112.96
             26.73,113.45 17.53,106.60 16.34,95.00
             15.44,86.25 25.91,72.42 30.69,65.00
             36.99,55.23 42.24,49.72 54.00,47.44 Z
           M 113.00,51.47
           C 108.66,53.10 104.79,56.29 103.58,61.00
             101.94,67.45 107.66,72.41 113.00,71.34
             123.74,69.19 127.14,50.81 113.00,51.47 Z
           M 56.00,54.32
           C 42.34,57.42 25.82,87.00 25.82,87.00
             21.92,95.23 25.11,104.51 35.00,105.77
             39.86,106.40 50.73,101.08 60.00,101.08
             70.04,101.08 81.02,107.00 87.00,105.58
             89.83,104.91 92.40,103.13 94.15,100.82
             99.35,93.95 95.58,88.27 91.80,82.00
             82.96,67.37 75.75,52.18 56.00,54.32 Z" />
</svg>
